<?xml version="1.0" standalone="no"?><!DOCTYPE svg PUBLIC "-//W3C//DTD SVG 1.1//EN" "http://www.w3.org/Graphics/SVG/1.1/DTD/svg11.dtd"><svg t="1768978074286" class="icon" viewBox="0 0 1365 1024" version="1.1" xmlns="http://www.w3.org/2000/svg" p-id="23008" xmlns:xlink="http://www.w3.org/1999/xlink" width="266.6015625" height="200"><path d="M679.936 467.797333h5.12c118.741333-1.28 214.656-90.453333 214.656-200.106666V200.917333c0-110.592-97.28-200.277333-217.216-200.277333-119.893333 0-217.216 89.685333-217.216 200.277333v66.773334c0 109.653333 95.914667 198.826667 214.613333 200.106666z m421.418667 29.226667c77.098667 0 139.605333-56.149333 139.605333-125.141333v-41.941334c0-69.205333-62.506667-125.141333-139.605333-125.141333-77.098667 0-139.605333 56.106667-139.605334 125.141333v41.770667c0 69.162667 62.506667 125.312 139.605334 125.312z m-837.717334 0c77.098667 0 139.605333-56.149333 139.605334-125.141333v-41.941334C403.242667 260.693333 340.736 204.8 263.68 204.8c-77.098667 0-139.605333 56.106667-139.605333 125.141333v41.770667c-0.170667 69.162667 62.336 125.312 139.605333 125.312z m-201.472 127.36C25.514667 641.962667 0 681.386667 0 727.466667v51.456c0 34.048 20.906667 62.421333 49.493333 71.765333a892.586667 892.586667 0 0 0 136.704 22.272V782.08c0-81.109333 31.189333-152.234667 78.634667-197.248H263.68a523.52 523.52 0 0 0-201.472 39.509333z m1241.173334 0.170667a528.853333 528.853333 0 0 0-201.984-39.978667h-1.024c47.616 45.141333 78.634667 116.266667 78.634666 197.205333v90.965334a884.821333 884.821333 0 0 0 136.362667-22.272c28.586667-9.173333 49.834667-37.717333 49.834667-71.893334v-50.986666c0-46.08-25.514667-85.333333-61.866667-103.04z m-312.149334-5.12a775.253333 775.253333 0 0 0-308.693333-64.213334c-108.629333 0-212.266667 22.741333-308.053333 63.872-55.978667 27.861333-95.189333 90.922667-95.189334 164.650667v82.218667c0 54.528 32 100.138667 75.690667 114.986666 105.514667 26.922667 215.04 41.770667 327.722667 41.770667 112.554667 0 221.866667-14.506667 327.210666-41.6 44.032-14.677333 76.032-60.501333 76.032-114.986667v-82.261333c0-73.514667-39.04-136.405333-94.72-164.48z" fill="#2c2c2c" p-id="23009"></path></svg>