<?xml version="1.0" standalone="no"?><!DOCTYPE svg PUBLIC "-//W3C//DTD SVG 1.1//EN" "http://www.w3.org/Graphics/SVG/1.1/DTD/svg11.dtd"><svg t="1768975211837" class="icon" viewBox="0 0 1024 1024" version="1.1" xmlns="http://www.w3.org/2000/svg" p-id="12803" xmlns:xlink="http://www.w3.org/1999/xlink" width="200" height="200"><path d="M898.048 215.04c-2.048 2.56-4.096 4.608-6.656 7.168-8.192 9.216-18.432 18.432-27.648 27.648-8.704 8.192-17.408 16.384-24.064 23.552l-0.512 0.512-0.512 0.512c-3.072 2.56-5.12 6.144-5.12 10.24 0 7.168 5.632 13.312 12.8 13.312 0.512 0 1.024 0 1.536-0.512l2.56-0.512 0.512 0.512h71.168c7.68 0 11.264 6.144 11.776 9.216v529.408c0 27.648-13.824 44.032-37.376 44.032-18.944 0-38.912-11.776-38.912-44.032V404.992c0-38.4-3.584-52.224-43.52-54.272-9.216-0.512-43.008 0-67.584 0h-15.36V70.656C731.136 37.376 704 10.24 670.72 10.24H162.816C129.536 10.24 102.4 37.376 102.4 70.656v878.592h-42.496c-12.288 0-22.016 9.728-22.016 22.016v20.992c0 12.8 10.24 23.04 22.016 23.04H773.12c11.776 0 22.016-10.752 22.016-23.04v-20.992c0-12.288-9.728-22.016-22.016-22.016h-41.472V404.48H782.336c16.384 0 22.016 13.312 22.528 20.48v416.256c0 97.28 76.8 101.888 92.672 101.888 27.136 0 90.624-9.728 90.624-100.864V231.424c0-0.512 0-12.8-14.336-25.6-7.68-6.656-16.384-14.848-26.112-23.04-31.232-28.16-66.56-59.392-79.872-72.704-5.12-5.12-12.8-8.192-20.48-7.68-5.12 0-12.288 1.536-18.432 8.192-12.288 13.312-5.12 29.184 2.048 36.352 4.608 4.608 11.264 10.24 18.432 16.896 13.312 12.288 30.208 27.136 43.008 39.936l6.144 6.144c-0.512 1.536-0.512 3.584-0.512 5.12z m-281.6 734.72H217.6c-27.136 0-49.152-22.016-49.152-49.152V124.928c0-27.136 22.016-49.152 49.152-49.152h398.336c27.136 0 49.152 22.016 49.152 49.152v780.8h-0.512c-2.048 24.576-23.04 44.032-48.128 44.032zM545.28 257.536H290.816c-24.064 0-43.008-19.456-43.008-43.008 0-24.064 19.456-43.52 43.008-43.52h254.464c24.064 0 43.52 19.456 43.52 43.52 0 23.552-19.456 43.008-43.52 43.008z" fill="#2c2c2c" p-id="12804"></path></svg>