<?xml version="1.0" standalone="no"?><!DOCTYPE svg PUBLIC "-//W3C//DTD SVG 1.1//EN" "http://www.w3.org/Graphics/SVG/1.1/DTD/svg11.dtd"><svg t="1768977839431" class="icon" viewBox="0 0 1024 1024" version="1.1" xmlns="http://www.w3.org/2000/svg" p-id="21931" xmlns:xlink="http://www.w3.org/1999/xlink" width="200" height="200"><path d="M864 160H160a64 64 0 0 0-64 64v544a64 64 0 0 0 64 64h64v64a32 32 0 1 0 64 0v-64h448v64a32 32 0 0 0 64 0v-64h64a64 64 0 0 0 64-64V224a64 64 0 0 0-64-64z m-32 384h-115.616a144 144 0 1 1 0-64H832a32 32 0 0 1 0 64z m-176-32a80 80 0 1 1-80-80 80.384 80.384 0 0 1 80 80z" p-id="21932" fill="#2c2c2c"></path></svg>